<svg width="136" height="48" viewBox="0 0 136 48" fill="none" xmlns="http://www.w3.org/2000/svg">
<rect width="136" height="48" fill="white"/>
<path d="M38.5859 25.248L40.5699 18.816H43.1779L45.1459 25.248L47.3699 18.816H50.0739L46.1699 30H44.3139L41.8659 22.224L39.4339 30H37.5779L33.6739 18.816H36.3779L38.5859 25.248ZM59.8829 24.352C59.8829 23.3493 59.5629 22.496 58.9229 21.792C58.2829 21.088 57.4935 20.736 56.5549 20.736C55.6269 20.736 54.8429 21.088 54.2029 21.792C53.5629 22.496 53.2429 23.3493 53.2429 24.352C53.2429 25.344 53.5629 26.192 54.2029 26.896C54.8429 27.5893 55.6269 27.936 56.5549 27.936C57.4935 27.936 58.2829 27.5893 58.9229 26.896C59.5629 26.192 59.8829 25.344 59.8829 24.352ZM60.7309 28.464C59.6002 29.5627 58.2082 30.112 56.5549 30.112C54.9015 30.112 53.5095 29.5627 52.3789 28.464C51.2482 27.3547 50.6829 25.9787 50.6829 24.336C50.6829 22.6933 51.2482 21.3227 52.3789 20.224C53.5095 19.1147 54.9015 18.56 56.5549 18.56C58.2082 18.56 59.6002 19.1147 60.7309 20.224C61.8615 21.3227 62.4269 22.6933 62.4269 24.336C62.4269 25.9787 61.8615 27.3547 60.7309 28.464ZM74.6576 22.96L71.6336 29.072H70.1456L67.1376 22.96V30H64.6416V18.816H68.0176L70.8976 24.96L73.7936 18.816H77.1536V30H74.6576V22.96ZM88.0712 18.816V21.04H82.5032V23.344H87.5112V25.472H82.5032V27.792H88.2472V30H80.0072V18.816H88.0712ZM98.4 18.816H100.896V30H98.4L93.072 22.992V30H90.576V18.816H92.912L98.4 26.016V18.816Z" fill="#252B42"/>
</svg>
