<svg width="170" height="48" viewBox="0 0 170 48" fill="none" xmlns="http://www.w3.org/2000/svg">
<rect width="170" height="48" fill="white"/>
<path d="M35.344 30L34.304 27.584H29.616L28.576 30H25.92L30.752 18.816H33.168L38 30H35.344ZM31.968 22.144L30.56 25.392H33.36L31.968 22.144ZM44.5339 27.792C45.7605 27.792 46.7632 27.3067 47.5419 26.336L49.1419 27.984C47.8725 29.4133 46.3739 30.128 44.6459 30.128C42.9285 30.128 41.5099 29.584 40.3899 28.496C39.2805 27.408 38.7259 26.0373 38.7259 24.384C38.7259 22.72 39.2912 21.3333 40.4219 20.224C41.5632 19.1147 42.9552 18.56 44.5979 18.56C46.4325 18.56 47.9685 19.2587 49.2059 20.656L47.6539 22.416C46.8645 21.4347 45.8832 20.944 44.7099 20.944C43.7712 20.944 42.9659 21.2533 42.2939 21.872C41.6325 22.48 41.3019 23.3067 41.3019 24.352C41.3019 25.3867 41.6165 26.2187 42.2459 26.848C42.8752 27.4773 43.6379 27.792 44.5339 27.792ZM56.3526 27.792C57.5793 27.792 58.582 27.3067 59.3606 26.336L60.9606 27.984C59.6913 29.4133 58.1926 30.128 56.4646 30.128C54.7473 30.128 53.3286 29.584 52.2086 28.496C51.0993 27.408 50.5446 26.0373 50.5446 24.384C50.5446 22.72 51.11 21.3333 52.2406 20.224C53.382 19.1147 54.774 18.56 56.4166 18.56C58.2513 18.56 59.7873 19.2587 61.0246 20.656L59.4726 22.416C58.6833 21.4347 57.702 20.944 56.5286 20.944C55.59 20.944 54.7846 21.2533 54.1126 21.872C53.4513 22.48 53.1206 23.3067 53.1206 24.352C53.1206 25.3867 53.4353 26.2187 54.0646 26.848C54.694 27.4773 55.4566 27.792 56.3526 27.792ZM71.0994 18.816V21.04H65.5314V23.344H70.5394V25.472H65.5314V27.792H71.2754V30H63.0354V18.816H71.0994ZM77.2041 20.752C76.7881 20.752 76.4575 20.8533 76.2121 21.056C75.9775 21.248 75.8601 21.5093 75.8601 21.84C75.8601 22.16 76.0041 22.416 76.2921 22.608C76.5908 22.8 77.2681 23.0293 78.3241 23.296C79.3908 23.552 80.2175 23.9413 80.8041 24.464C81.3908 24.9867 81.6841 25.7493 81.6841 26.752C81.6841 27.7547 81.3055 28.5707 80.5481 29.2C79.8015 29.8187 78.8148 30.128 77.5881 30.128C75.8175 30.128 74.2228 29.472 72.8041 28.16L74.2921 26.336C75.4975 27.392 76.6121 27.92 77.6361 27.92C78.0948 27.92 78.4521 27.824 78.7081 27.632C78.9748 27.4293 79.1081 27.1627 79.1081 26.832C79.1081 26.4907 78.9695 26.224 78.6921 26.032C78.4148 25.8293 77.8655 25.6267 77.0441 25.424C75.7428 25.1147 74.7881 24.7147 74.1801 24.224C73.5828 23.7227 73.2841 22.944 73.2841 21.888C73.2841 20.8213 73.6628 20 74.4201 19.424C75.1881 18.848 76.1428 18.56 77.2841 18.56C78.0308 18.56 78.7775 18.688 79.5241 18.944C80.2708 19.2 80.9215 19.5627 81.4761 20.032L80.2121 21.856C79.2415 21.12 78.2388 20.752 77.2041 20.752ZM87.5073 20.752C87.0913 20.752 86.7606 20.8533 86.5153 21.056C86.2806 21.248 86.1633 21.5093 86.1633 21.84C86.1633 22.16 86.3073 22.416 86.5953 22.608C86.8939 22.8 87.5713 23.0293 88.6273 23.296C89.6939 23.552 90.5206 23.9413 91.1073 24.464C91.6939 24.9867 91.9873 25.7493 91.9873 26.752C91.9873 27.7547 91.6086 28.5707 90.8513 29.2C90.1046 29.8187 89.1179 30.128 87.8913 30.128C86.1206 30.128 84.5259 29.472 83.1073 28.16L84.5953 26.336C85.8006 27.392 86.9153 27.92 87.9393 27.92C88.3979 27.92 88.7553 27.824 89.0113 27.632C89.2779 27.4293 89.4113 27.1627 89.4113 26.832C89.4113 26.4907 89.2726 26.224 88.9953 26.032C88.7179 25.8293 88.1686 25.6267 87.3473 25.424C86.0459 25.1147 85.0913 24.7147 84.4833 24.224C83.8859 23.7227 83.5872 22.944 83.5872 21.888C83.5872 20.8213 83.9659 20 84.7233 19.424C85.4913 18.848 86.4459 18.56 87.5873 18.56C88.3339 18.56 89.0806 18.688 89.8273 18.944C90.5739 19.2 91.2246 19.5627 91.7793 20.032L90.5153 21.856C89.5446 21.12 88.5419 20.752 87.5073 20.752ZM102.77 24.352C102.77 23.3493 102.45 22.496 101.81 21.792C101.17 21.088 100.381 20.736 99.4424 20.736C98.5144 20.736 97.7304 21.088 97.0904 21.792C96.4504 22.496 96.1304 23.3493 96.1304 24.352C96.1304 25.344 96.4504 26.192 97.0904 26.896C97.7304 27.5893 98.5144 27.936 99.4424 27.936C100.381 27.936 101.17 27.5893 101.81 26.896C102.45 26.192 102.77 25.344 102.77 24.352ZM103.618 28.464C102.488 29.5627 101.096 30.112 99.4424 30.112C97.789 30.112 96.397 29.5627 95.2664 28.464C94.1357 27.3547 93.5704 25.9787 93.5704 24.336C93.5704 22.6933 94.1357 21.3227 95.2664 20.224C96.397 19.1147 97.789 18.56 99.4424 18.56C101.096 18.56 102.488 19.1147 103.618 20.224C104.749 21.3227 105.314 22.6933 105.314 24.336C105.314 25.9787 104.749 27.3547 103.618 28.464ZM116.601 22.528C116.601 24.32 115.892 25.4773 114.473 26L117.305 30H114.233L111.753 26.432H110.025V30H107.529V18.816H111.769C113.508 18.816 114.745 19.1093 115.481 19.696C116.228 20.2827 116.601 21.2267 116.601 22.528ZM111.849 24.272C112.702 24.272 113.284 24.1333 113.593 23.856C113.902 23.5787 114.057 23.1413 114.057 22.544C114.057 21.936 113.897 21.52 113.577 21.296C113.257 21.072 112.697 20.96 111.897 20.96H110.025V24.272H111.849ZM119.254 18.816H121.75V30H119.254V18.816ZM132.668 18.816V21.04H127.1V23.344H132.108V25.472H127.1V27.792H132.844V30H124.604V18.816H132.668ZM138.773 20.752C138.357 20.752 138.026 20.8533 137.781 21.056C137.546 21.248 137.429 21.5093 137.429 21.84C137.429 22.16 137.573 22.416 137.861 22.608C138.16 22.8 138.837 23.0293 139.893 23.296C140.96 23.552 141.786 23.9413 142.373 24.464C142.96 24.9867 143.253 25.7493 143.253 26.752C143.253 27.7547 142.874 28.5707 142.117 29.2C141.37 29.8187 140.384 30.128 139.157 30.128C137.386 30.128 135.792 29.472 134.373 28.16L135.861 26.336C137.066 27.392 138.181 27.92 139.205 27.92C139.664 27.92 140.021 27.824 140.277 27.632C140.544 27.4293 140.677 27.1627 140.677 26.832C140.677 26.4907 140.538 26.224 140.261 26.032C139.984 25.8293 139.434 25.6267 138.613 25.424C137.312 25.1147 136.357 24.7147 135.749 24.224C135.152 23.7227 134.853 22.944 134.853 21.888C134.853 20.8213 135.232 20 135.989 19.424C136.757 18.848 137.712 18.56 138.853 18.56C139.6 18.56 140.346 18.688 141.093 18.944C141.84 19.2 142.49 19.5627 143.045 20.032L141.781 21.856C140.81 21.12 139.808 20.752 138.773 20.752Z" fill="#252B42"/>
</svg>
