<svg width="120" height="48" viewBox="0 0 120 48" fill="none" xmlns="http://www.w3.org/2000/svg">
<rect width="120" height="48" fill="white"/>
<path d="M41.7104 18.816H44.2064V23.408L48.4304 18.816H51.5184L47.0704 23.76C47.4544 24.2933 48.1637 25.2907 49.1984 26.752C50.233 28.2027 51.0064 29.2853 51.5184 30H48.6064L45.3264 25.584L44.2064 26.832V30H41.7104V18.816ZM53.1698 18.816H55.6658V30H53.1698V18.816ZM62.4718 18.816C64.4664 18.816 65.9971 19.3067 67.0638 20.288C68.1304 21.2587 68.6638 22.6133 68.6638 24.352C68.6638 26.0907 68.1411 27.4667 67.0958 28.48C66.0611 29.4933 64.4771 30 62.3438 30H58.5198V18.816H62.4718ZM62.5998 27.792C63.7411 27.792 64.6158 27.504 65.2238 26.928C65.8424 26.352 66.1518 25.5147 66.1518 24.416C66.1518 23.3173 65.8424 22.4747 65.2238 21.888C64.6158 21.2907 63.6771 20.992 62.4078 20.992H61.0158V27.792H62.5998ZM74.4385 20.752C74.0225 20.752 73.6918 20.8533 73.4465 21.056C73.2118 21.248 73.0945 21.5093 73.0945 21.84C73.0945 22.16 73.2385 22.416 73.5265 22.608C73.8252 22.8 74.5025 23.0293 75.5585 23.296C76.6252 23.552 77.4518 23.9413 78.0385 24.464C78.6252 24.9867 78.9185 25.7493 78.9185 26.752C78.9185 27.7547 78.5398 28.5707 77.7825 29.2C77.0358 29.8187 76.0492 30.128 74.8225 30.128C73.0518 30.128 71.4572 29.472 70.0385 28.16L71.5265 26.336C72.7318 27.392 73.8465 27.92 74.8705 27.92C75.3292 27.92 75.6865 27.824 75.9425 27.632C76.2092 27.4293 76.3425 27.1627 76.3425 26.832C76.3425 26.4907 76.2038 26.224 75.9265 26.032C75.6492 25.8293 75.0998 25.6267 74.2785 25.424C72.9772 25.1147 72.0225 24.7147 71.4145 24.224C70.8172 23.7227 70.5185 22.944 70.5185 21.888C70.5185 20.8213 70.8972 20 71.6545 19.424C72.4225 18.848 73.3772 18.56 74.5185 18.56C75.2652 18.56 76.0118 18.688 76.7585 18.944C77.5052 19.2 78.1558 19.5627 78.7105 20.032L77.4465 21.856C76.4758 21.12 75.4732 20.752 74.4385 20.752Z" fill="#252B42"/>
</svg>
